<svg xmlns="http://www.w3.org/2000/svg" viewBox="0 0 32 32" fill="none">
  <rect width="32" height="32" rx="8" fill="url(#grad)"/>
  <defs>
    <linearGradient id="grad" x1="0" y1="0" x2="32" y2="32">
      <stop offset="0%" stop-color="#6366f1"/>
      <stop offset="100%" stop-color="#06b6d4"/>
    </linearGradient>
  </defs>
  <path d="M16 7c-1.1 0-2 .9-2 2v8c0 1.1.9 2 2 2s2-.9 2-2V9c0-1.1-.9-2-2-2zm-4 4c-1.1 0-2 .9-2 2v5c0 1.1.9 2 2 2s2-.9 2-2v-5c0-1.1-.9-2-2-2zm8 0c-1.1 0-2 .9-2 2v5c0 1.1.9 2 2 2s2-.9 2-2v-5c0-1.1-.9-2-2-2zm-12 3c-1.1 0-2 .9-2 2v2c0 1.1.9 2 2 2s2-.9 2-2v-2c0-1.1-.9-2-2-2zm16 0c-1.1 0-2 .9-2 2v2c0 1.1.9 2 2 2s2-.9 2-2v-2c0-1.1-.9-2-2-2z" fill="white" opacity="0.95"/>
</svg>